<?xml version="1.0" encoding="utf-8"?>
<!-- Generator: Adobe Illustrator 16.2.0, SVG Export Plug-In . SVG Version: 6.00 Build 0)  -->
<!DOCTYPE svg PUBLIC "-//W3C//DTD SVG 1.1//EN" "http://www.w3.org/Graphics/SVG/1.1/DTD/svg11.dtd">
<svg version="1.1" id="Layer_1" xmlns="http://www.w3.org/2000/svg" xmlns:xlink="http://www.w3.org/1999/xlink" x="0px" y="0px"
	 width="96px" height="96px" viewBox="0 0 96 96" enable-background="new 0 0 96 96" xml:space="preserve">
<g id="New_Symbol_83">
</g>
<g id="share">
	<path fill="#FFFFFF" d="M72.065,58.879c-2.994,0-5.747,0.976-8.01,2.584L37.802,47.799l25.959-13.511
		c2.319,1.75,5.175,2.832,8.305,2.832c7.653,0,13.853-6.211,13.853-13.849c0-7.651-6.199-13.847-13.853-13.847
		c-7.647,0-13.844,6.195-13.844,13.847c0,0.164,0.044,0.323,0.048,0.487l-26.03,13.557c-2.316-1.758-5.173-2.835-8.305-2.835
		c-7.653,0-13.853,6.201-13.853,13.847c0,7.65,6.199,13.852,13.853,13.852c3.497,0,6.655-1.342,9.093-3.481l25.281,13.156
		c-0.018,0.295-0.087,0.577-0.087,0.875c0,7.644,6.196,13.847,13.844,13.847c7.653,0,13.853-6.203,13.853-13.847
		C85.918,65.075,79.719,58.879,72.065,58.879z"/>
</g>
<g id="lock">
</g>
<g id="unlock">
</g>
<g id="trash">
</g>
</svg>
