<?xml version="1.0" encoding="utf-8"?>
<!-- Generator: Adobe Illustrator 16.2.0, SVG Export Plug-In . SVG Version: 6.00 Build 0)  -->
<!DOCTYPE svg PUBLIC "-//W3C//DTD SVG 1.1//EN" "http://www.w3.org/Graphics/SVG/1.1/DTD/svg11.dtd">
<svg version="1.1" id="Layer_1" xmlns="http://www.w3.org/2000/svg" xmlns:xlink="http://www.w3.org/1999/xlink" x="0px" y="0px"
	 width="96px" height="96px" viewBox="0 0 96 96" enable-background="new 0 0 96 96" xml:space="preserve">
<g id="New_Symbol_83">
</g>
<g id="share">
</g>
<g id="lock">
	<path fill="#FFFFFF" d="M71.645,39.681v-7.34C71.645,19.487,61.038,9.029,48,9.029S24.355,19.487,24.355,32.341v7.34h-5.255v47.29
		h57.799v-47.29H71.645z M51.664,76.462h-8.705l2.216-12.056c-1.301-0.752-2.216-2.096-2.216-3.707c0-2.409,1.949-4.352,4.351-4.352
		c2.407,0,4.354,1.942,4.354,4.352c0,1.611-0.916,2.955-2.217,3.707L51.664,76.462z M61.136,39.681H34.864v-7.34
		c0-6.94,6.014-12.803,13.136-12.803c7.117,0,13.136,5.862,13.136,12.803V39.681z"/>
</g>
<g id="unlock">
</g>
<g id="trash">
</g>
</svg>
