<?xml version="1.0" encoding="utf-8"?>
<!-- Generator: Adobe Illustrator 16.2.0, SVG Export Plug-In . SVG Version: 6.00 Build 0)  -->
<!DOCTYPE svg PUBLIC "-//W3C//DTD SVG 1.1//EN" "http://www.w3.org/Graphics/SVG/1.1/DTD/svg11.dtd">
<svg version="1.1" id="Layer_1" xmlns="http://www.w3.org/2000/svg" xmlns:xlink="http://www.w3.org/1999/xlink" x="0px" y="0px"
	 width="95.667px" height="96px" viewBox="0 0 95.667 96" enable-background="new 0 0 95.667 96" xml:space="preserve">
<g id="New_Symbol_83">
</g>
<g id="share">
</g>
<g id="lock">
</g>
<g id="unlock">
	<path fill="#FFFFFF" d="M65.989,9.014c-12.871,0-23.344,10.438-23.344,23.266v8.02H6.333v46.688h57.062V40.299H53.021v-8.02
		c0-7.105,5.818-12.891,12.969-12.891c7.152,0,12.971,5.785,12.971,12.891v8.02h10.375v-8.02
		C89.335,19.452,78.862,9.014,65.989,9.014z M38.938,76.611h-8.715l2.268-12.191c-1.33-0.737-2.268-2.11-2.268-3.746
		c0-2.411,1.951-4.362,4.357-4.362s4.357,1.951,4.357,4.362c0,1.636-0.943,3.009-2.273,3.746L38.938,76.611z"/>
</g>
<g id="trash">
</g>
</svg>
