<?xml version="1.0" encoding="utf-8"?>
<!-- Generator: Adobe Illustrator 16.2.0, SVG Export Plug-In . SVG Version: 6.00 Build 0)  -->
<!DOCTYPE svg PUBLIC "-//W3C//DTD SVG 1.1//EN" "http://www.w3.org/Graphics/SVG/1.1/DTD/svg11.dtd">
<svg version="1.1" id="Layer_1" xmlns="http://www.w3.org/2000/svg" xmlns:xlink="http://www.w3.org/1999/xlink" x="0px" y="0px"
	 width="96px" height="96px" viewBox="0 0 96 96" enable-background="new 0 0 96 96" xml:space="preserve">
<g id="New_Symbol_83">
</g>
<g id="save">
	<path fill="#FFFFFF" d="M70.291,12c-8.059,0-8.059,0.37-14.455,6.767c-3.454,3.454-5.92,5.998-7.688,7.769
		c-1.761-1.76-4.225-4.341-7.692-7.808C34.059,12.331,34.059,12,26,12c-2.5,0-10,0-10,0v10c0,0,7.5,0,10,0
		c3.098,0,3.097,0.181,10.786,7.868C43.074,36.156,43,36.384,43,40.309V49H31.601l16.19,16.201L64.003,49H53v-8.691
		c0-3.925,0.217-4.153,6.505-10.441C67.193,22.181,67.193,22,70.291,22c2.5,0,9.709,0,9.709,0V12C80,12,72.791,12,70.291,12z"/>
	<path fill="#FFFFFF" d="M70.43,32.335l-6.934,6.935c3.104,3.658,5.004,8.367,5.004,13.54c0,11.598-9.401,21-21,21s-21-9.402-21-21
		c0-5.428,2.079-10.357,5.46-14.084l-6.394-6.393c-5.055,5.455-8.149,12.753-8.149,20.776c0,16.891,13.692,30.583,30.583,30.583
		s30.583-13.692,30.583-30.583C78.583,45.084,75.484,37.791,70.43,32.335z"/>
</g>
<g id="share">
</g>
<g id="lock">
</g>
<g id="unlock">
</g>
<g id="trash">
</g>
</svg>
