<?xml version="1.0" encoding="utf-8"?>
<!-- Generator: Adobe Illustrator 16.2.0, SVG Export Plug-In . SVG Version: 6.00 Build 0)  -->
<!DOCTYPE svg PUBLIC "-//W3C//DTD SVG 1.1//EN" "http://www.w3.org/Graphics/SVG/1.1/DTD/svg11.dtd">
<svg version="1.1" id="Layer_1" xmlns="http://www.w3.org/2000/svg" xmlns:xlink="http://www.w3.org/1999/xlink" x="0px" y="0px"
	 width="96px" height="96px" viewBox="0 0 96 96" enable-background="new 0 0 96 96" xml:space="preserve">
<g id="New_Symbol_83">
</g>
<g id="share">
</g>
<g id="lock">
</g>
<g id="unlock">
</g>
<g id="trash">
</g>
<g>
	<g>
		<path fill="#FFFFFF" d="M66.173,55.952c0.665,1.439,0.702,6.184-2,6.184c-6.423,0-26.782,0-26.782,0H9.609v-6.184
			c0-1.906,4.029-4.338,12.091-7.292c3.63-1.292,6.138-2.63,7.522-4.015c1.384-1.384,2.076-3.276,2.076-5.676
			c0-0.738-0.2-1.338-0.6-1.8c-0.401-0.461-0.862-1.107-1.385-1.938c-0.523-0.831-0.938-1.985-1.246-3.461
			c-0.062-0.43-0.23-0.753-0.508-0.969c-0.276-0.215-0.554-0.369-0.83-0.461c-0.277-0.092-0.554-0.43-0.831-1.015
			c-0.276-0.584-0.478-1.431-0.6-2.538c0-1.353,0.369-2.184,1.107-2.492l-0.738-5.169c-0.062-0.861,0.046-1.814,0.323-2.861
			c0.276-1.045,0.799-2.137,1.568-3.276c0.77-1.138,2.016-2.091,3.738-2.861c1.723-0.769,3.753-1.154,6.092-1.154
			c2.338,0,4.368,0.385,6.092,1.154c1.722,0.77,2.968,1.724,3.738,2.861c0.769,1.139,1.292,2.231,1.569,3.276
			c0.276,1.047,0.383,2,0.322,2.861c-0.124,1.477-0.369,3.2-0.738,5.169l0.277,0.185c0.185,0.124,0.369,0.385,0.554,0.785
			c0.185,0.401,0.276,0.908,0.276,1.523c-0.124,1.107-0.322,1.954-0.6,2.538c-0.276,0.585-0.554,0.923-0.831,1.015
			c-0.276,0.092-0.554,0.247-0.83,0.461c-0.277,0.216-0.447,0.54-0.508,0.969c-0.309,1.477-0.724,2.63-1.246,3.461
			c-0.523,0.831-0.985,1.477-1.385,1.938c-0.4,0.461-0.6,1.062-0.6,1.8c0,2.4,0.692,4.292,2.077,5.676
			c1.384,1.385,3.891,2.723,7.521,4.015C61.142,51.614,65.373,54.222,66.173,55.952z"/>
	</g>
</g>
<path fill="#FFFFFF" d="M91.127,53.979C90.544,53.398,89.808,53,88.918,53h-7.499c-0.411-1-1.026-2.701-1.849-4.003l5.034-4.878
	c0.547-0.616,0.82-1.309,0.82-2.131s-0.273-1.528-0.82-2.144l-2.158-2.048c-0.548-0.617-1.232-0.921-2.054-0.921
	c-0.822,0-1.541,0.31-2.158,0.926l-4.873,5.034C71.922,42.083,70,41.5,69,41.09v-6.575c0-0.889-0.451-1.843-1.033-2.425
	C67.385,31.509,66.523,31,65.702,31h-2.979c-0.822,0-1.397,0.509-1.979,1.09C60.162,32.672,60,33.626,60,34.515v6.575
	c-2,0.411-3.451,1.062-4.957,1.952l-4.275-4.212c-0.617-0.547-1.368-0.822-2.189-0.822c-0.044,0-0.101,0.009-0.144,0.011
	c-0.322,0.483-0.643,0.93-0.937,1.304c0.064,1.488,0.532,2.133,0.894,2.494c0.538,0.539,2.034,1.653,6.032,3.076
	c8.408,3.081,12.102,5.522,13.827,7.214c0.457,0.296,0.894,0.644,1.304,1.055c1.473,1.473,2.208,3.235,2.208,5.29
	c0,2.055-0.736,3.819-2.208,5.291c-0.816,0.816-1.726,1.329-2.72,1.693C66.025,65.842,65.125,66,64.173,66H47.966
	c0.427,1,0.925,1.822,1.505,2.655l-4.109,4.041c-0.549,0.616-0.821,1.353-0.821,2.174c0,0.822,0.272,1.55,0.821,2.167l2.157,2.059
	c0.548,0.616,1.233,0.927,2.055,0.927s1.541-0.307,2.157-0.923l4.379-4.52C57.684,75.333,60,75.848,61,76.121v6.266
	c0,0.891,0.434,1.393,1.016,1.975C62.596,84.944,63.441,85,64.264,85h2.979c0.821,0,1.411-0.056,1.995-0.639
	C69.818,83.78,70,83.278,70,82.387v-6.985c2-0.547,3.09-1.267,4.322-2.158l4.884,4.828c0.616,0.549,1.364,0.822,2.186,0.822
	c0.822,0,1.555-0.273,2.171-0.822l2.062-2.157c0.616-0.547,0.928-1.233,0.928-2.055s-0.307-1.541-0.923-2.158l-5.237-5.417
	C81.075,64.917,81.556,64,81.83,62h7.088c0.89,0,1.626-0.216,2.209-0.799C91.709,60.62,92,59.992,92,59.17v-2.979
	C92,55.369,91.709,54.562,91.127,53.979z"/>
</svg>
