<?xml version="1.0" encoding="utf-8"?>
<!-- Generator: Adobe Illustrator 16.2.0, SVG Export Plug-In . SVG Version: 6.00 Build 0)  -->
<!DOCTYPE svg PUBLIC "-//W3C//DTD SVG 1.1//EN" "http://www.w3.org/Graphics/SVG/1.1/DTD/svg11.dtd">
<svg version="1.1" id="Layer_1" xmlns="http://www.w3.org/2000/svg" xmlns:xlink="http://www.w3.org/1999/xlink" x="0px" y="0px"
	 width="96.332px" height="96px" viewBox="0 0 96.332 96" enable-background="new 0 0 96.332 96" xml:space="preserve">
<g id="New_Symbol_83">
</g>
<g id="share">
</g>
<g id="lock">
</g>
<g id="unlock">
</g>
<g id="trash">
	<g>
		<path fill="#FFFFFF" d="M29.775,16.474C29.775,21.728,29.775,16.474,29.775,16.474v10.509h10.509V16.474h15.764v10.509h10.509
			V16.474c0,0,0,5.254,0,0c0-10.509-5.255-10.509-10.509-10.509c-5.255,0-5.255,0-15.764,0S29.775,11.219,29.775,16.474z"/>
		<g>
			<path fill="#FFFFFF" d="M82.319,24.355c0-1.445-1.183-2.627-2.627-2.627H16.64c-1.444,0-2.627,1.182-2.627,2.627v5.254
				c0,1.445,1.183,2.627,2.627,2.627s2.627,1.182,2.627,2.627v52.544c0,1.445,1.183,2.627,2.627,2.627h52.545
				c1.444,0,2.627-1.182,2.627-2.627V34.864c0-1.445,1.183-2.627,2.627-2.627s2.627-1.182,2.627-2.627V24.355z M35.03,76.899
				c0,1.445-1.183,2.627-2.627,2.627h-0.001c-1.444,0-2.627-1.182-2.627-2.627V37.946c0-1.445,1.183-2.627,2.627-2.627h0.001
				c1.444,0,2.627,1.182,2.627,2.627V76.899z M50.793,76.899c0,1.445-1.182,2.627-2.627,2.627s-2.627-1.182-2.627-2.627V37.946
				c0-1.445,1.182-2.627,2.627-2.627s2.627,1.182,2.627,2.627V76.899z M66.557,76.899c0,1.445-1.183,2.627-2.627,2.627h-0.001
				c-1.444,0-2.627-1.182-2.627-2.627V37.946c0-1.445,1.183-2.627,2.627-2.627h0.001c1.444,0,2.627,1.182,2.627,2.627V76.899z"/>
		</g>
	</g>
</g>
</svg>
