<?xml version="1.0" encoding="utf-8"?>
<!-- Generator: Adobe Illustrator 16.2.0, SVG Export Plug-In . SVG Version: 6.00 Build 0)  -->
<!DOCTYPE svg PUBLIC "-//W3C//DTD SVG 1.1//EN" "http://www.w3.org/Graphics/SVG/1.1/DTD/svg11.dtd">
<svg version="1.1" id="Layer_1" xmlns="http://www.w3.org/2000/svg" xmlns:xlink="http://www.w3.org/1999/xlink" x="0px" y="0px"
	 width="768px" height="96px" viewBox="0 0 768 96" enable-background="new 0 0 768 96" xml:space="preserve">
<g id="New_Symbol_83">
	<g>
		<g>
			<path fill="#FFFFFF" d="M83.018,40.333H72.04c-0.654-2.106-1.57-4.095-2.688-5.939l7.281-7.302c1.719-1.693,1.719-4.477,0-6.188
				l-3.092-3.084c-1.711-1.706-4.484-1.698-6.188,0l-7.409,7.397c-2.002-1.142-4.17-2.024-6.479-2.617v-9.624
				c0-2.412-1.949-4.379-4.375-4.379h-4.377c-2.411,0-4.371,1.968-4.371,4.379v9.624c-2.518,0.634-4.875,1.64-7.043,2.951
				l-6.195-6.193c-1.707-1.699-4.49-1.706-6.196,0l-3.104,3.094c-1.706,1.704-1.686,4.49,0.013,6.201l6.312,6.309
				c-1.334,2.33-2.335,4.872-2.906,7.563h-8.244c-2.422,0-4.385,1.958-4.385,4.379v4.379c0,2.409,1.963,4.372,4.385,4.372h8.803
				c0.795,2.635,2.001,5.069,3.541,7.284l-5.953,5.952c-1.713,1.716-1.713,4.495-0.012,6.201l3.091,3.089
				c1.72,1.698,4.497,1.698,6.201-0.008l6.649-6.645c2.243,1.113,4.673,1.919,7.23,2.334v9.157c0,2.417,1.957,4.374,4.377,4.385
				h4.377c2.412-0.011,4.377-1.968,4.377-4.385V72.733c2.207-0.782,4.298-1.821,6.191-3.152l7.047,7.053
				c1.712,1.706,4.478,1.706,6.196,0l3.092-3.095c1.719-1.706,1.719-4.479-0.013-6.195l-7.723-7.738
				c0.949-1.922,1.686-3.972,2.143-6.137h10.426c2.428,0,4.383-1.95,4.391-4.385v-4.372C87.4,42.3,85.445,40.333,83.018,40.333z
				 M46.91,58.938c-6.043,0-10.943-4.885-10.943-10.942c0-6.05,4.9-10.938,10.943-10.938c6.049,0,10.949,4.888,10.949,10.938
				C57.859,54.054,52.959,58.938,46.91,58.938z"/>
		</g>
	</g>
</g>
<g id="save">
	<path fill="#FFFFFF" d="M166.291,12c-8.059,0-8.059,0.37-14.455,6.767c-3.454,3.454-5.92,5.998-7.688,7.769
		c-1.761-1.76-4.225-4.341-7.692-7.808C130.059,12.331,130.059,12,122,12c-2.5,0-10,0-10,0v10c0,0,7.5,0,10,0
		c3.098,0,3.097,0.181,10.786,7.868c6.288,6.288,6.214,6.516,6.214,10.441V49h-11.399l16.19,16.201L160.003,49H149v-8.691
		c0-3.925,0.217-4.153,6.505-10.441c7.688-7.688,7.688-7.868,10.786-7.868c2.5,0,9.709,0,9.709,0V12C176,12,168.791,12,166.291,12z"
		/>
	<path fill="#FFFFFF" d="M166.43,32.335l-6.934,6.935c3.104,3.658,5.004,8.367,5.004,13.54c0,11.598-9.401,21-21,21s-21-9.402-21-21
		c0-5.428,2.079-10.357,5.46-14.084l-6.394-6.393c-5.055,5.455-8.149,12.753-8.149,20.776c0,16.891,13.692,30.583,30.583,30.583
		s30.583-13.692,30.583-30.583C174.583,45.084,171.484,37.791,166.43,32.335z"/>
</g>
<g id="fork">
	<rect x="200" y="23" fill="#FFFFFF" width="64" height="10"/>
	<path fill="#FFFFFF" d="M264,62c0,0-7.998,0-10.58,0c-13.414,0-20.418-39-39.598-39C206.506,23,200,23,200,23v10
		c0,0,6.506,0,13.822,0c12.195,0,20.301,40,39.598,40c2.582,0,10.58,0,10.58,0V62z"/>
	<polyline fill="#FFFFFF" points="263.75,84 279.951,67.81 263.75,51.598 	"/>
	<polyline fill="#FFFFFF" points="263.75,44.402 279.951,28.212 263.75,12 	"/>
</g>
<g id="share">
	<path fill="#FFFFFF" d="M360.066,58.879c-2.994,0-5.747,0.976-8.01,2.584l-26.254-13.664l25.959-13.511
		c2.319,1.75,5.175,2.832,8.305,2.832c7.653,0,13.853-6.211,13.853-13.849c0-7.651-6.199-13.847-13.853-13.847
		c-7.647,0-13.844,6.195-13.844,13.847c0,0.164,0.044,0.323,0.048,0.487l-26.03,13.557c-2.316-1.758-5.173-2.835-8.305-2.835
		c-7.653,0-13.853,6.201-13.853,13.847c0,7.65,6.199,13.852,13.853,13.852c3.497,0,6.655-1.342,9.093-3.481l25.281,13.156
		c-0.018,0.295-0.087,0.577-0.087,0.875c0,7.644,6.196,13.847,13.844,13.847c7.653,0,13.853-6.203,13.853-13.847
		C373.919,65.075,367.72,58.879,360.066,58.879z"/>
</g>
<g id="lock">
	<path fill="#FFFFFF" d="M455.646,39.681v-7.34c0-12.854-10.606-23.312-23.645-23.312s-23.645,10.458-23.645,23.312v7.34h-5.255
		v47.29H460.9v-47.29H455.646z M435.665,76.462h-8.705l2.216-12.056c-1.301-0.752-2.216-2.096-2.216-3.707
		c0-2.409,1.949-4.352,4.351-4.352c2.407,0,4.354,1.942,4.354,4.352c0,1.611-0.916,2.955-2.217,3.707L435.665,76.462z
		 M445.137,39.681h-26.271v-7.34c0-6.94,6.014-12.803,13.136-12.803c7.117,0,13.136,5.862,13.136,12.803V39.681z"/>
</g>
<g id="unlock">
	<path fill="#FFFFFF" d="M545.99,9.014c-12.871,0-23.344,10.438-23.344,23.266v8.02h-36.312v46.688h57.062V40.299h-10.375v-8.02
		c0-7.105,5.818-12.891,12.969-12.891c7.152,0,12.971,5.785,12.971,12.891v8.02h10.375v-8.02
		C569.336,19.452,558.863,9.014,545.99,9.014z M518.939,76.611h-8.715l2.268-12.191c-1.33-0.737-2.268-2.11-2.268-3.746
		c0-2.411,1.951-4.362,4.357-4.362s4.357,1.951,4.357,4.362c0,1.636-0.943,3.009-2.273,3.746L518.939,76.611z"/>
</g>
<g id="trash">
	<g>
		<path fill="#FFFFFF" d="M605.443,16.474C605.443,21.728,605.443,16.474,605.443,16.474v10.509h10.509V16.474h15.764v10.509h10.509
			V16.474c0,0,0,5.254,0,0c0-10.509-5.255-10.509-10.509-10.509c-5.255,0-5.255,0-15.764,0S605.443,11.219,605.443,16.474z"/>
		<g>
			<path fill="#FFFFFF" d="M657.987,24.355c0-1.445-1.183-2.627-2.627-2.627h-63.053c-1.444,0-2.627,1.182-2.627,2.627v5.254
				c0,1.445,1.183,2.627,2.627,2.627s2.627,1.182,2.627,2.627v52.544c0,1.445,1.183,2.627,2.627,2.627h52.545
				c1.444,0,2.627-1.182,2.627-2.627V34.864c0-1.445,1.183-2.627,2.627-2.627s2.627-1.182,2.627-2.627V24.355z M610.698,76.899
				c0,1.445-1.183,2.627-2.627,2.627h-0.001c-1.444,0-2.627-1.182-2.627-2.627V37.946c0-1.445,1.183-2.627,2.627-2.627h0.001
				c1.444,0,2.627,1.182,2.627,2.627V76.899z M626.461,76.899c0,1.445-1.182,2.627-2.627,2.627s-2.627-1.182-2.627-2.627V37.946
				c0-1.445,1.182-2.627,2.627-2.627s2.627,1.182,2.627,2.627V76.899z M642.225,76.899c0,1.445-1.183,2.627-2.627,2.627h-0.001
				c-1.444,0-2.627-1.182-2.627-2.627V37.946c0-1.445,1.183-2.627,2.627-2.627h0.001c1.444,0,2.627,1.182,2.627,2.627V76.899z"/>
		</g>
	</g>
</g>
<g>
	<g>
		<path fill="#FFFFFF" d="M738.173,55.952c0.665,1.439,0.702,6.184-2,6.184c-6.423,0-26.782,0-26.782,0h-27.781v-6.184
			c0-1.906,4.029-4.338,12.091-7.292c3.63-1.292,6.138-2.63,7.522-4.015c1.384-1.384,2.076-3.276,2.076-5.676
			c0-0.738-0.2-1.338-0.6-1.8c-0.401-0.461-0.862-1.107-1.385-1.938c-0.523-0.831-0.938-1.985-1.246-3.461
			c-0.062-0.43-0.23-0.753-0.508-0.969c-0.276-0.215-0.554-0.369-0.83-0.461c-0.277-0.092-0.554-0.43-0.831-1.015
			c-0.276-0.584-0.478-1.431-0.6-2.538c0-1.353,0.369-2.184,1.107-2.492l-0.738-5.169c-0.062-0.861,0.046-1.814,0.323-2.861
			c0.276-1.045,0.799-2.137,1.568-3.276c0.77-1.138,2.016-2.091,3.738-2.861c1.723-0.769,3.753-1.154,6.092-1.154
			c2.338,0,4.368,0.385,6.092,1.154c1.722,0.77,2.968,1.724,3.738,2.861c0.769,1.139,1.292,2.231,1.569,3.276
			c0.276,1.047,0.383,2,0.322,2.861c-0.124,1.477-0.369,3.2-0.738,5.169l0.277,0.185c0.185,0.124,0.369,0.385,0.554,0.785
			c0.185,0.401,0.276,0.908,0.276,1.523c-0.124,1.107-0.322,1.954-0.6,2.538c-0.276,0.585-0.554,0.923-0.831,1.015
			c-0.276,0.092-0.554,0.247-0.83,0.461c-0.277,0.216-0.447,0.54-0.508,0.969c-0.309,1.477-0.724,2.63-1.246,3.461
			c-0.523,0.831-0.985,1.477-1.385,1.938c-0.4,0.461-0.6,1.062-0.6,1.8c0,2.4,0.692,4.292,2.077,5.676
			c1.384,1.385,3.891,2.723,7.521,4.015C733.142,51.614,737.373,54.222,738.173,55.952z"/>
	</g>
</g>
<path fill="#FFFFFF" d="M763.127,53.979c-0.583-0.581-1.319-0.979-2.209-0.979h-7.499c-0.411-1-1.026-2.701-1.849-4.003l5.034-4.878
	c0.547-0.616,0.82-1.309,0.82-2.131s-0.273-1.528-0.82-2.144l-2.158-2.048c-0.548-0.617-1.232-0.921-2.054-0.921
	c-0.822,0-1.541,0.31-2.158,0.926l-4.873,5.034C743.922,42.083,742,41.5,741,41.09v-6.575c0-0.889-0.451-1.843-1.033-2.425
	c-0.582-0.581-1.443-1.09-2.265-1.09h-2.979c-0.822,0-1.397,0.509-1.979,1.09c-0.582,0.582-0.744,1.536-0.744,2.425v6.575
	c-2,0.411-3.451,1.062-4.957,1.952l-4.275-4.212c-0.617-0.547-1.368-0.822-2.189-0.822c-0.044,0-0.101,0.009-0.144,0.011
	c-0.322,0.483-0.643,0.93-0.937,1.304c0.064,1.488,0.532,2.133,0.894,2.494c0.538,0.539,2.034,1.653,6.032,3.076
	c8.408,3.081,12.102,5.522,13.827,7.214c0.457,0.296,0.894,0.644,1.304,1.055c1.473,1.473,2.208,3.235,2.208,5.29
	c0,2.055-0.736,3.819-2.208,5.291c-0.816,0.816-1.726,1.329-2.72,1.693c-0.81,0.407-1.71,0.565-2.662,0.565h-16.207
	c0.427,1,0.925,1.822,1.505,2.655l-4.109,4.041c-0.549,0.616-0.821,1.353-0.821,2.174c0,0.822,0.272,1.55,0.821,2.167l2.157,2.059
	c0.548,0.616,1.233,0.927,2.055,0.927s1.541-0.307,2.157-0.923l4.379-4.52c1.574,0.754,3.891,1.269,4.891,1.542v6.266
	c0,0.891,0.434,1.393,1.016,1.975c0.58,0.583,1.426,0.639,2.248,0.639h2.979c0.821,0,1.411-0.056,1.995-0.639
	c0.58-0.582,0.762-1.083,0.762-1.975v-6.985c2-0.547,3.09-1.267,4.322-2.158l4.884,4.828c0.616,0.549,1.364,0.822,2.186,0.822
	c0.822,0,1.555-0.273,2.171-0.822l2.062-2.157c0.616-0.547,0.928-1.233,0.928-2.055s-0.307-1.541-0.923-2.158l-5.237-5.417
	c0.684-1.369,1.164-2.286,1.438-4.286h7.088c0.89,0,1.626-0.216,2.209-0.799C763.709,60.62,764,59.992,764,59.17v-2.979
	C764,55.369,763.709,54.562,763.127,53.979z"/>
</svg>
