<?xml version="1.0" encoding="utf-8"?>
<!-- Generator: Adobe Illustrator 16.2.0, SVG Export Plug-In . SVG Version: 6.00 Build 0)  -->
<!DOCTYPE svg PUBLIC "-//W3C//DTD SVG 1.1//EN" "http://www.w3.org/Graphics/SVG/1.1/DTD/svg11.dtd">
<svg version="1.1" id="Layer_1" xmlns="http://www.w3.org/2000/svg" xmlns:xlink="http://www.w3.org/1999/xlink" x="0px" y="0px"
	 width="96px" height="96px" viewBox="0 0 96 96" enable-background="new 0 0 96 96" xml:space="preserve">
<g id="New_Symbol_83">
	<g>
		<g>
			<path fill="#FFFFFF" d="M83.018,40.333H72.04c-0.654-2.106-1.57-4.095-2.688-5.939l7.281-7.302c1.719-1.693,1.719-4.477,0-6.188
				l-3.092-3.084c-1.711-1.706-4.484-1.698-6.188,0l-7.409,7.397c-2.002-1.142-4.17-2.024-6.479-2.617v-9.624
				c0-2.412-1.949-4.379-4.375-4.379h-4.377c-2.411,0-4.371,1.968-4.371,4.379v9.624c-2.518,0.634-4.875,1.64-7.043,2.951
				l-6.195-6.193c-1.707-1.699-4.49-1.706-6.196,0l-3.104,3.094c-1.706,1.704-1.686,4.49,0.013,6.201l6.312,6.309
				c-1.334,2.33-2.335,4.872-2.906,7.563h-8.244c-2.422,0-4.385,1.958-4.385,4.379v4.379c0,2.409,1.963,4.372,4.385,4.372h8.803
				c0.795,2.635,2.001,5.069,3.541,7.284l-5.953,5.952c-1.713,1.716-1.713,4.495-0.012,6.201l3.091,3.089
				c1.72,1.698,4.497,1.698,6.201-0.008l6.649-6.645c2.243,1.113,4.673,1.919,7.23,2.334v9.157c0,2.417,1.957,4.374,4.377,4.385
				h4.377c2.412-0.011,4.377-1.968,4.377-4.385V72.733c2.207-0.782,4.298-1.821,6.191-3.152l7.047,7.053
				c1.712,1.706,4.478,1.706,6.196,0l3.092-3.095c1.719-1.706,1.719-4.479-0.013-6.195l-7.723-7.738
				c0.949-1.922,1.686-3.972,2.143-6.137h10.426c2.428,0,4.383-1.95,4.391-4.385v-4.372C87.4,42.3,85.445,40.333,83.018,40.333z
				 M46.91,58.938c-6.043,0-10.943-4.885-10.943-10.942c0-6.05,4.9-10.938,10.943-10.938c6.049,0,10.949,4.888,10.949,10.938
				C57.859,54.054,52.959,58.938,46.91,58.938z"/>
		</g>
	</g>
</g>
<g id="share">
</g>
<g id="lock">
</g>
<g id="unlock">
</g>
<g id="trash">
</g>
</svg>
