<?xml version="1.0" standalone="no"?>
<!DOCTYPE svg PUBLIC "-//W3C//DTD SVG 1.1//EN" "http://www.w3.org/Graphics/SVG/1.1/DTD/svg11.dtd" >
<svg xmlns="http://www.w3.org/2000/svg">
<metadata>
This is a custom SVG font generated by IcoMoon.
<iconset grid="20"></iconset>
</metadata>
<defs>
<font id="glyph" horiz-adv-x="640" >
<font-face units-per-em="640" ascent="608" descent="-32" />
<missing-glyph horiz-adv-x="640" />
<glyph unicode="&#x73;&#x74;&#x61;&#x63;&#x6b;&#x6f;&#x76;&#x65;&#x72;&#x66;&#x6c;&#x6f;&#x77;" d="M 640.00,208.00 L 640.00-32.00 L 0.00-32.00 L 0.00,208.00 L 80.00,208.00 L 80.00,48.00 L 560.00,48.00 L 560.00,208.00 ZM 120.00,168.00L 520.00,168.00L 520.00,88.00L 120.00,88.00zM 129.47,254.584L 146.781,332.686L 537.301,246.126L 519.99,168.024zM 174.786,415.151L 208.594,487.655L 571.114,318.615L 537.306,246.111zM 619.826,382.077 L 571.125,318.609 L 253.784,562.114 L 288.994,608.00 L 325.396,608.00 Z"  />
<glyph unicode="&#x63;&#x6c;&#x69;&#x70;&#x62;&#x6f;&#x61;&#x72;&#x64;" d="M 540.00,528.00l-40.00,0.00 l0.00-40.00 l 20.00,0.00 l0.00-320.00 L 360.00,168.00 l0.00-160.00 L 120.00,8.00 L 120.00,488.00 l 20.00,0.00 L 140.00,528.00 L 100.00,528.00 c-11.001,0.00-20.00-9.00-20.00-20.00l0.00-520.00 c0.00-11.00, 8.999-20.00, 20.00-20.00l 315.00,0.00 l 145.00,145.00L 560.00,508.00 
	C 560.00,519.00, 551.00,528.00, 540.00,528.00z M 400.00,8.00l0.00,120.00 l 120.00,0.00 L 400.00,8.00zM 480.00,528.00l-80.00,0.00 L 400.00,568.00 c0.00,22.00-18.00,40.00-40.00,40.00l-80.00,0.00 c-22.003,0.00-40.00-18.00-40.00-40.00l0.00-40.00 l-80.00,0.00 l0.00-80.00 l 320.00,0.00 L 480.00,528.00 z M 360.00,528.00l-80.00,0.00 L 280.00,567.929 
	c 0.021,0.024, 0.045,0.049, 0.071,0.071l 79.855,0.00 c 0.026-0.022, 0.051-0.048, 0.074-0.071L 360.00,528.00 z"  />
<glyph unicode="&#x66;&#x61;&#x63;&#x65;&#x62;&#x6f;&#x6f;&#x6b;" d="M 480.00,475.872l-91.392,0.00 c-10.816,0.00-22.88-14.208-22.88-33.248L 365.728,376.64 L 480.00,376.64 l0.00-94.08 l-114.272,0.00 L 365.728,0.00 L 257.824,0.00 l0.00,282.528 L 160.00,282.528 L 160.00,376.64 l 97.824,0.00 L 257.824,432.00 
	c0.00,79.392, 55.104,144.00, 130.752,144.00L 480.00,576.00 L 480.00,475.872 z"  />
<glyph unicode="&#x68;&#x69;&#x73;&#x74;&#x6f;&#x72;&#x79;" d="M 359.264,550.40c-142.272,0.00-257.952-113.984-261.408-255.84L 19.20,294.56 l 117.728-131.232l 117.696,131.232L 163.232,294.56 C 166.688,400.192, 253.088,484.80, 359.264,484.80
	c 108.352,0.00, 196.16-88.096, 196.16-196.80s-87.808-196.80-196.16-196.80c-43.456,0.00-83.584,14.208-116.096,38.176l-44.992-48.128
	C 242.592,46.40, 298.496,25.60, 359.264,25.60c 144.448,0.00, 261.568,117.472, 261.568,262.40C 620.80,432.928, 503.68,550.40, 359.264,550.40z M 336.00,428.80l0.00-150.08 l 96.16-96.16
	l 31.68,31.68L 380.80,297.28L 380.80,428.80 L 336.00,428.80 z"  />
<glyph unicode="&#x74;&#x77;&#x69;&#x74;&#x74;&#x65;&#x72;" d="M 614.40,470.624c-21.696-9.632-44.96-16.096-69.408-19.04c 24.96,14.944, 44.128,38.624, 53.12,66.816c-23.328-13.824-49.184-23.904-76.672-29.312
	c-22.048,23.488-53.44,38.144-88.192,38.144c-66.72,0.00-120.80-54.08-120.80-120.768c0.00-9.472, 1.056-18.688, 3.136-27.52
	c-100.384,5.024-189.408,53.12-248.96,126.208C 56.192,487.328, 50.208,466.56, 50.208,444.416c0.00-41.92, 21.344-78.88, 53.76-100.544
	c-19.808,0.64-38.432,6.048-54.72,15.104c0.00-0.512,0.00-0.992,0.00-1.504c0.00-58.528, 41.664-107.328, 96.896-118.464c-10.112-2.752-20.80-4.224-31.84-4.224
	c-7.776,0.00-15.328,0.736-22.72,2.144c 15.36-48.00, 60.00-82.912, 112.832-83.872c-41.344-32.416-93.408-51.712-150.016-51.712
	c-9.76,0.00-19.36,0.576-28.80,1.696c 53.44-34.272, 116.928-54.272, 185.184-54.272c 222.176,0.00, 343.68,184.064, 343.68,343.712
	c0.00,5.216-0.096,10.432-0.352,15.616C 577.728,425.12, 598.176,446.40, 614.40,470.624z"  />
<glyph unicode="&#x63;&#x6f;&#x6d;&#x6d;&#x65;&#x6e;&#x74;" d="M 320.00,568.00 C 496.731,568.00 640.00,451.594 640.00,308.00 C 640.00,164.405 496.731,48.00 320.00,48.00 C 303.027,48.00 286.369,49.084 270.11,51.153 C 201.374-17.584 119.329-29.91 40.00-31.72 L 40.00-14.898 C 82.835,6.089 120.00,44.315 120.00,88.00 C 120.00,94.096 119.526,100.081 118.648,105.935 C 46.275,153.60 0.00,226.406 0.00,308.00 C 0.00,451.594 143.269,568.00 320.00,568.00 Z"  />
<glyph unicode="&#x75;&#x73;&#x65;&#x72;&#x63;&#x6f;&#x67;" d="M 441.153,234.987c 4.433-9.593, 4.68-41.227-13.333-41.227c-42.82,0.00-178.547,0.00-178.547,0.00L 64.06,193.76 l0.00,41.227 
			c0.00,12.707, 26.86,28.92, 80.607,48.613c 24.20,8.613, 40.92,17.533, 50.147,26.767c 9.227,9.227, 13.84,21.84, 13.84,37.84
			c0.00,4.92-1.333,8.92-4.00,12.00c-2.673,3.073-5.747,7.38-9.233,12.92c-3.487,5.54-6.253,13.233-8.307,23.073
			c-0.413,2.867-1.533,5.02-3.387,6.46c-1.84,1.433-3.693,2.46-5.533,3.073c-1.847,0.613-3.693,2.867-5.54,6.767
			c-1.84,3.893-3.187,9.54-4.00,16.92c0.00,9.02, 2.46,14.56, 7.38,16.613l-4.92,34.46c-0.413,5.74, 0.307,12.093, 2.153,19.073
			c 1.84,6.967, 5.327,14.247, 10.453,21.84c 5.133,7.587, 13.44,13.94, 24.92,19.073c 11.487,5.127, 25.02,7.693, 40.613,7.693
			c 15.587,0.00, 29.12-2.567, 40.613-7.693c 11.48-5.133, 19.787-11.493, 24.92-19.073c 5.127-7.593, 8.613-14.873, 10.46-21.84
			c 1.84-6.98, 2.553-13.333, 2.147-19.073c-0.827-9.847-2.46-21.333-4.92-34.46l 1.847-1.233c 1.233-0.827, 2.46-2.567, 3.693-5.233
			c 1.233-2.673, 1.84-6.053, 1.84-10.153c-0.827-7.38-2.147-13.027-4.00-16.92c-1.84-3.90-3.693-6.153-5.54-6.767
			c-1.84-0.613-3.693-1.647-5.533-3.073c-1.847-1.44-2.98-3.60-3.387-6.46c-2.06-9.847-4.827-17.533-8.307-23.073
			c-3.487-5.54-6.567-9.847-9.233-12.92c-2.667-3.073-4.00-7.08-4.00-12.00c0.00-16.00, 4.613-28.613, 13.847-37.84
			c 9.227-9.233, 25.94-18.153, 50.14-26.767C 407.613,263.907, 435.82,246.52, 441.153,234.987zM 607.513,248.14C 603.627,252.013, 598.72,254.667, 592.787,254.667l-49.993,0.00 c-2.74,6.667-6.84,18.007-12.327,26.687l 33.56,32.52
	c 3.647,4.107, 5.467,8.727, 5.467,14.207s-1.82,10.187-5.467,14.293l-14.387,13.653c-3.653,4.113-8.213,6.14-13.693,6.14
	c-5.48,0.00-10.273-2.067-14.387-6.173l-32.487-33.56C 479.48,327.447, 466.667,331.333, 460.00,334.067l0.00,43.833 c0.00,5.927-3.007,12.287-6.887,16.167
	C 449.233,397.94, 443.487,401.333, 438.013,401.333l-19.86,0.00 c-5.48,0.00-9.313-3.393-13.193-7.267C 401.08,390.187, 400.00,383.827, 400.00,377.90l0.00-43.833 
	c-13.333-2.74-23.007-7.08-33.047-13.013l-28.50,28.08c-4.113,3.647-9.12,5.48-14.593,5.48c-0.293,0.00-0.673-0.06-0.96-0.073
	c-2.147-3.22-4.287-6.20-6.247-8.693c 0.427-9.92, 3.547-14.22, 5.96-16.627c 3.587-3.593, 13.56-11.02, 40.213-20.507
	c 56.053-20.54, 80.68-36.813, 92.18-48.093c 3.047-1.973, 5.96-4.293, 8.693-7.033c 9.82-9.82, 14.72-21.567, 14.72-35.267
	c0.00-13.70-4.907-25.46-14.72-35.273c-5.44-5.44-11.507-8.86-18.133-11.287C 440.167,169.053, 434.167,168.00, 427.82,168.00L 319.773,168.00 
	c 2.847-6.667, 6.167-12.147, 10.033-17.70l-27.393-26.94c-3.66-4.107-5.473-9.02-5.473-14.493c0.00-5.48, 1.813-10.333, 5.473-14.447l 14.38-13.727
	c 3.653-4.107, 8.22-6.18, 13.70-6.18s 10.273,2.047, 14.38,6.153l 29.193,30.133C 384.56,105.78, 400.00,102.347, 406.667,100.527l0.00-41.773 
	c0.00-5.94, 2.893-9.287, 6.773-13.167C 417.307,41.707, 422.94,41.333, 428.427,41.333l 19.86,0.00 c 5.473,0.00, 9.407,0.373, 13.30,4.26
	C 465.453,49.467, 466.667,52.813, 466.667,58.753l0.00,46.567 c 13.333,3.647, 20.60,8.447, 28.813,14.387l 32.56-32.187c 4.107-3.66, 9.093-5.48, 14.573-5.48
	c 5.48,0.00, 10.367,1.82, 14.473,5.48l 13.747,14.38c 4.107,3.647, 6.187,8.22, 6.187,13.70s-2.047,10.273-6.153,14.387l-34.913,36.113
	C 540.50,175.22, 543.707,181.333, 545.533,194.667l 47.253,0.00 c 5.933,0.00, 10.84,1.44, 14.727,5.327C 611.393,203.867, 613.333,208.053, 613.333,213.533l0.00,19.86 
	C 613.333,238.873, 611.393,244.253, 607.513,248.14z"  />
<glyph unicode="&#x72;&#x65;&#x64;&#x64;&#x69;&#x74;" d="M 160.00,208.00A40.00,40.00 2700.00 1 1 240.00,208A40.00,40.00 2700.00 1 1 160.00,208zM 400.00,208.00A40.00,40.00 2700.00 1 1 480.00,208A40.00,40.00 2700.00 1 1 400.00,208zM 401.945,122.514 C 412.246,130.63 427.18,128.86 435.298,118.556 C 443.415,108.252 441.643,93.32 431.339,85.202 C 402.654,62.604 358.95,48.00 320.00,48.00 C 281.049,48.00 237.345,62.604 208.66,85.201 C 198.356,93.32 196.585,108.252 204.702,118.556 C 212.821,128.857 227.754,130.63 238.056,122.514 C 254.57,109.502 287.257,95.50 320.00,95.50 C 352.743,95.50 385.43,109.502 401.945,122.514 ZM 640.00,288.00c0.00,44.182-35.818,80.00-80.00,80.00c-30.072,0.00-56.245-16.606-69.907-41.137c-41.12,22.496-91.22,37.029-145.80,40.38
			l 47.739,107.204l 91.371-26.375C 491.623,424.732, 513.851,408.00, 540.00,408.00c 33.138,0.00, 60.00,26.862, 60.00,60.00s-26.862,60.00-60.00,60.00
			c-22.85,0.00-42.714-12.776-52.846-31.571L 385.337,525.819c-11.39,3.286-23.461-2.326-28.283-13.157l-64.856-145.641
			c-53.211-3.748-102.039-18.139-142.273-40.148C 136.261,351.404, 110.073,368.00, 80.00,368.00c-44.182,0.00-80.00-35.818-80.00-80.00
			c0.00-32.695, 19.626-60.784, 47.733-73.189C 42.689,199.794, 40.00,184.121, 40.00,168.00c0.00-110.456, 125.36-200.00, 280.00-200.00
			c 154.639,0.00, 280.00,89.544, 280.00,200.00c0.00,16.12-2.688,31.789-7.73,46.804C 620.376,227.21, 640.00,255.305, 640.00,288.00z M 540.00,490.50
			c 12.426,0.00, 22.50-10.074, 22.50-22.50s-10.074-22.50-22.50-22.50s-22.50,10.074-22.50,22.50S 527.574,490.50, 540.00,490.50z M 40.00,288.00c0.00,22.056, 17.944,40.00, 40.00,40.00
			c 15.942,0.00, 29.733-9.377, 36.154-22.904c-20.905-15.854-38.229-34.141-51.041-54.211C 50.41,256.804, 40.00,271.205, 40.00,288.00z M 320.00,15.50
			c-128.406,0.00-232.50,68.276-232.50,152.50s 104.094,152.50, 232.50,152.50c 128.406,0.00, 232.50-68.276, 232.50-152.50S 448.406,15.50, 320.00,15.50z M 574.888,250.885
			c-12.813,20.07-30.136,38.358-51.041,54.211C 530.269,318.623, 544.058,328.00, 560.00,328.00c 22.056,0.00, 40.00-17.944, 40.00-40.00
			C 600.00,271.205, 589.59,256.804, 574.888,250.885z"  />
<glyph unicode="&#x67;&#x69;&#x74;&#x68;&#x75;&#x62;" d="M 320.00,608.00C 143.269,608.00,0.00,464.731,0.00,288.00s 143.269-320.00, 320.00-320.00s 320.00,143.269, 320.00,320.00S 496.731,608.00, 320.00,608.00z M 510.035,97.965
	c-24.699-24.697-53.445-44.082-85.442-57.616c-8.129-3.438-16.384-6.455-24.75-9.058L 399.843,79.25 c0.00,25.209-8.646,43.75-25.938,55.625
	c 10.834,1.041, 20.781,2.50, 29.844,4.375s 18.646,4.584, 28.75,8.125s 19.166,7.76, 27.188,12.656s 15.729,11.25, 23.125,19.063s 13.594,16.666, 18.594,26.563
	s 8.959,21.771, 11.875,35.625s 4.375,29.115, 4.375,45.781c0.00,32.291-10.521,59.791-31.563,82.50c 9.584,25.00, 8.541,52.188-3.125,81.563l-7.813,0.938
	c-5.416,0.625-15.156-1.666-29.219-6.875s-29.844-13.75-47.344-25.625c-24.791,6.875-50.521,10.313-77.188,10.313c-26.875,0.00-52.50-3.438-76.875-10.313
	c-11.041,7.50-21.51,13.697-31.406,18.594c-9.896,4.896-17.813,8.229-23.75,10.00s-11.459,2.865-16.563,3.281s-8.385,0.521-9.844,0.313
	s-2.50-0.416-3.125-0.625c-11.666-29.584-12.709-56.771-3.125-81.563c-21.041-22.709-31.563-50.209-31.563-82.50c0.00-16.666, 1.459-31.928, 4.375-45.781
	s 6.875-25.729, 11.875-35.625s 11.197-18.75, 18.594-26.563s 15.104-14.166, 23.125-19.063s 17.084-9.115, 27.188-12.656s 19.688-6.25, 28.75-8.125
	s 19.01-3.334, 29.844-4.375c-17.084-11.666-25.625-30.209-25.625-55.625l0.00-48.894 c-9.436,2.809-18.738,6.128-27.875,9.992
	c-31.996,13.534-60.742,32.919-85.441,57.616c-24.697,24.699-44.084,53.445-57.616,85.442C 58.349,216.506, 51.25,251.696, 51.25,288.00
	s 7.099,71.494, 21.099,104.594c 13.534,31.996, 32.919,60.742, 57.616,85.441s 53.445,44.084, 85.441,57.616
	C 248.506,549.651, 283.696,556.75, 320.00,556.75s 71.494-7.099, 104.594-21.099c 31.997-13.534, 60.744-32.919, 85.442-57.616
	c 24.697-24.697, 44.082-53.445, 57.616-85.441C 581.651,359.494, 588.75,324.304, 588.75,288.00s-7.099-71.494-21.099-104.594
	C 554.117,151.41, 534.732,122.663, 510.035,97.965z"  />
<glyph unicode="&#x75;&#x70;&#x6c;&#x6f;&#x61;&#x64;" d="M 280.00,248.00L 360.00,248.00L 360.00,408.00L 480.00,408.00L 320.00,568.00L 160.00,408.00L 280.00,408.00 	zM 400.00,338.00L 400.00,276.305L 583.166,208.00L 320.00,109.864L 56.834,208.00L 240.00,276.305L 240.00,338.00L0.00,248.00L0.00,88.00L 320.00-32.00L 640.00,88.00L 640.00,248.00 	z"  />
<glyph unicode="&#x75;&#x6e;&#x6c;&#x6f;&#x63;&#x6b;" d="M 439.927,547.907c-85.807,0.00-155.627-69.587-155.627-155.107l0.00-53.467 L 42.22,339.333 l0.00-311.253 l 380.413,0.00 L 422.633,339.34 L 353.473,339.34 l0.00,53.467 
		c0.00,47.367, 38.787,85.94, 86.46,85.94c 47.68,0.00, 86.473-38.567, 86.473-85.94l0.00-53.467 l 69.167,0.00 l0.00,53.467 
		C 595.567,478.32, 525.747,547.907, 439.927,547.907z M 259.587,97.26l-58.10,0.00 l 15.12,81.273c-8.867,4.913-15.12,14.067-15.12,24.973
		c0.00,16.073, 13.007,29.08, 29.047,29.08s 29.047-13.007, 29.047-29.08c0.00-10.907-6.287-20.06-15.153-24.973L 259.587,97.26z" horiz-adv-x="633.3333333333334"  />
<glyph unicode="&#x67;&#x70;&#x6c;&#x75;&#x73;" d="M 63.68,429.152c0.00-47.776, 15.968-82.304, 47.424-102.56c 25.76-16.608, 55.68-19.104, 71.232-19.104c 3.776,0.00, 6.784,0.16, 8.896,0.288
	c0.00,0.00-4.928-32.096, 18.88-63.872l-1.088,0.032c-41.248,0.00-175.808-8.64-175.808-119.264c0.00-112.544, 123.584-118.24, 148.352-118.24
	c 1.952,0.00, 3.072,0.032, 3.072,0.032c 0.288,0.00, 2.048-0.064, 5.056-0.064c 15.904,0.00, 57.024,1.984, 95.232,20.576
	c 49.536,24.032, 74.688,65.888, 74.688,124.32c0.00,56.48-38.272,90.08-66.24,114.656c-17.056,14.976-31.808,27.904-31.808,40.48
	c0.00,12.80, 10.752,22.432, 24.384,34.624c 22.016,19.712, 42.816,47.776, 42.816,100.832c0.00,46.656-6.048,77.952-43.328,97.792
	c 3.904,1.984, 17.632,3.424, 24.448,4.384c 20.192,2.752, 49.728,5.888, 49.728,22.368L 359.616,569.60 L 212.48,569.60 C 211.008,569.568, 63.68,564.096, 63.68,429.152z
	 M 301.216,140.736c 2.816-44.992-35.68-78.208-93.472-82.40c-58.688-4.32-107.04,22.112-109.856,67.104c-1.344,21.60, 8.128,42.752, 26.72,59.616
	c 18.88,17.056, 44.736,27.584, 72.928,29.696c 3.328,0.192, 6.624,0.352, 9.92,0.352C 261.76,215.104, 298.56,183.168, 301.216,140.736z M 262.784,459.968
	c 14.432-50.784-7.36-103.872-42.08-113.664C 216.704,345.184, 212.576,344.608, 208.416,344.608c-31.84,0.00-63.36,32.192-75.04,76.544
	C 126.848,446.08, 127.36,467.84, 134.848,488.80C 142.208,509.376, 155.424,523.328, 172.064,528.00c 4.00,1.152, 8.16,1.696, 12.32,1.696
	C 222.784,529.696, 247.488,513.76, 262.784,459.968z M 510.752,349.376l0.00,96.00 l-60.80,0.00 l0.00-96.00 l-96.00,0.00 l0.00-60.80 l 96.00,0.00 l0.00-96.00 l 60.80,0.00 l0.00,96.00 l 96.00,0.00 l0.00,60.80 L 510.752,349.376 z"  />
<glyph unicode="&#x74;&#x72;&#x61;&#x73;&#x68;" d="M 548.793,445.633c0.00,9.633-7.887,17.513-17.513,17.513L 110.933,463.147 c-9.627,0.00-17.513-7.88-17.513-17.513l0.00-35.027 
				c0.00-9.633, 7.887-17.513, 17.513-17.513s 17.513-7.88, 17.513-17.513l0.00-350.293 c0.00-9.633, 7.887-17.513, 17.513-17.513l 350.30,0.00 
				c 9.627,0.00, 17.513,7.88, 17.513,17.513L 513.773,375.573 c0.00,9.633, 7.887,17.513, 17.513,17.513s 17.513,7.88, 17.513,17.513L 548.80,445.633 z M 233.533,95.34
				c0.00-9.633-7.887-17.513-17.513-17.513l-0.007,0.00 c-9.627,0.00-17.513,7.88-17.513,17.513L 198.50,355.027 c0.00,9.633, 7.887,17.513, 17.513,17.513l 0.007,0.00 
				c 9.627,0.00, 17.513-7.88, 17.513-17.513L 233.533,95.34 z M 338.62,95.34c0.00-9.633-7.88-17.513-17.513-17.513s-17.513,7.88-17.513,17.513L 303.593,355.027 
				c0.00,9.633, 7.88,17.513, 17.513,17.513s 17.513-7.88, 17.513-17.513L 338.62,95.34 z M 443.713,95.34c0.00-9.633-7.887-17.513-17.513-17.513l-0.007,0.00 
				c-9.627,0.00-17.513,7.88-17.513,17.513L 408.68,355.027 c0.00,9.633, 7.887,17.513, 17.513,17.513l 0.007,0.00 c 9.627,0.00, 17.513-7.88, 17.513-17.513L 443.713,95.34 zM 198.50,498.173C 198.50,463.147, 198.50,498.173, 198.50,498.173l0.00-70.06 l 70.06,0.00 L 268.56,498.173 l 105.093,0.00 l0.00-70.06 l 70.06,0.00 
			L 443.713,498.173 c0.00,0.00,0.00-35.027,0.00,0.00c0.00,70.06-35.033,70.06-70.06,70.06c-35.033,0.00-35.033,0.00-105.093,0.00S 198.50,533.207, 198.50,498.173z"  />
<glyph unicode="&#x72;&#x65;&#x70;&#x6c;&#x79;" d="M 280.00,123.232L 280.00-32.00 L 40.00,208.00l 240.00,240.00l0.00-158.64 C 559.219,282.81, 547.242,479.23, 476.164,608.00
	C 651.607,418.366, 614.351,114.519, 280.00,123.232z"  />
<glyph unicode="&#x73;&#x68;&#x61;&#x72;&#x65;" d="M 480.433,215.473c-19.96,0.00-38.313-6.507-53.40-17.227L 252.013,289.34l 173.06,90.073
		c 15.46-11.667, 34.50-18.88, 55.367-18.88c 51.02,0.00, 92.353,41.407, 92.353,92.327c0.00,51.007-41.327,92.313-92.353,92.313
		c-50.98,0.00-92.293-41.30-92.293-92.313c0.00-1.093, 0.293-2.153, 0.32-3.247l-173.533-90.38c-15.44,11.72-34.487,18.90-55.367,18.90
		c-51.02,0.00-92.353-41.34-92.353-92.313c0.00-51.00, 41.327-92.347, 92.353-92.347c 23.313,0.00, 44.367,8.947, 60.62,23.207l 168.54-87.707
		c-0.12-1.967-0.58-3.847-0.58-5.833c0.00-50.96, 41.307-92.313, 92.293-92.313c 51.02,0.00, 92.353,41.353, 92.353,92.313
		C 572.787,174.167, 531.46,215.473, 480.433,215.473z"  />
<glyph unicode="&#x6c;&#x6f;&#x63;&#x6b;" d="M 477.633,343.46l0.00,48.933 C 477.633,478.087, 406.92,547.807, 320.00,547.807S 162.367,478.087, 162.367,392.393l0.00-48.933 l-35.033,0.00 l0.00-315.267 
		l 385.327,0.00 l0.00,315.267 L 477.633,343.46 z M 344.427,98.253l-58.033,0.00 l 14.773,80.373c-8.673,5.013-14.773,13.973-14.773,24.713c0.00,16.06, 12.993,29.013, 29.007,29.013
		c 16.047,0.00, 29.027-12.947, 29.027-29.013c0.00-10.74-6.107-19.70-14.78-24.713L 344.427,98.253z M 407.573,343.46L 232.427,343.46 l0.00,48.933 
		c0.00,46.267, 40.093,85.353, 87.573,85.353c 47.447,0.00, 87.573-39.08, 87.573-85.353L 407.573,343.46 z"  />
<glyph unicode="&#x6d;&#x6f;&#x76;&#x65;" d="M 360.00,208.00L 360.00,88.00L 440.00,88.00L 320.00-32.00L 200.00,88.00L 280.00,88.00L 280.00,208.00 		zM 280.00,368.00L 280.00,488.00L 200.00,488.00L 320.00,608.00L 440.00,488.00L 360.00,488.00L 360.00,368.00 		zM 240.00,248.00L 120.00,248.00L 120.00,168.00L0.00,288.00L 120.00,408.00L 120.00,328.00L 240.00,328.00 		zM 400.00,328.00L 520.00,328.00L 520.00,408.00L 640.00,288.00L 520.00,168.00L 520.00,248.00L 400.00,248.00 		z"  />
<glyph unicode="&#x73;&#x61;&#x76;&#x65;" d="M 468.607,528.00c-53.727,0.00-53.727-2.467-96.367-45.113c-23.027-23.027-39.467-39.987-51.253-51.793
		c-11.74,11.733-28.167,28.94-51.28,52.053C 227.06,525.793, 227.06,528.00, 173.333,528.00c-16.667,0.00-66.667,0.00-66.667,0.00l0.00-66.667 c0.00,0.00, 50.00,0.00, 66.667,0.00
		c 20.653,0.00, 20.647-1.207, 71.907-52.453C 287.16,366.96, 286.667,365.44, 286.667,339.273L 286.667,281.333 L 210.673,281.333 l 107.933-108.007L 426.687,281.333L 353.333,281.333 l0.00,57.94 
		c0.00,26.167, 1.447,27.687, 43.367,69.607C 447.953,460.127, 447.953,461.333, 468.607,461.333c 16.667,0.00, 64.727,0.00, 64.727,0.00L 533.333,528.00 C 533.333,528.00, 485.273,528.00, 468.607,528.00zM 469.533,392.433l-46.227-46.233c 20.693-24.387, 33.36-55.78, 33.36-90.267c0.00-77.32-62.673-140.00-140.00-140.00s-140.00,62.68-140.00,140.00
		c0.00,36.187, 13.86,69.047, 36.40,93.893l-42.627,42.62c-33.70-36.367-54.327-85.02-54.327-138.507c0.00-112.607, 91.28-203.887, 203.887-203.887
		s 203.887,91.28, 203.887,203.887C 523.887,307.44, 503.227,356.06, 469.533,392.433z"  />
<glyph unicode="&#x66;&#x6f;&#x72;&#x6b;" d="M 588.007,155.933L 480.00,264.013L 480.00,194.667 c-13.333,0.00-55.06,0.00-70.533,0.00c-89.427,0.00-136.12,260.00-263.987,260.00C 96.707,454.667, 53.333,454.667, 53.333,454.667l0.00-66.667 
		c0.00,0.00, 43.373,0.00, 92.147,0.00c 81.30,0.00, 135.34-266.667, 263.987-266.667C 424.94,121.333, 466.667,121.333, 480.00,121.333l0.00-73.333 L 588.007,155.933zM 588.007,419.92L 480.00,528.00L 480.00,454.667L 53.333,454.667L 53.333,388.00L 480.00,388.00L 480.00,311.987 	z"  />
<glyph unicode="&#x75;&#x73;&#x65;&#x72;" d="M 474.24,145.664c-78.88,28.736-104.096,52.992-104.096,104.928c0.00,31.168, 24.096,20.992, 34.656,78.08c 4.384,23.68, 25.664,0.384, 29.76,54.432
		c0.00,21.536-11.616,26.912-11.616,26.912s 5.92,31.904, 8.224,56.416C 433.984,497.024, 413.504,576.00, 304.00,576.00C 194.528,576.00, 173.984,497.024, 176.864,466.432
		C 179.168,441.92, 185.088,410.016, 185.088,410.016S 173.44,404.672, 173.44,383.104c 4.064-54.048, 25.344-30.752, 29.728-54.432
		c 10.592-57.088, 34.688-46.912, 34.688-78.08c0.00-51.936-25.216-76.192-104.096-104.928c-79.168-28.80-130.56-58.208-130.56-78.272c0.00-20.032,0.00-67.36,0.00-67.36
		l 300.80,0.00 l 300.80,0.00 c0.00,0.00,0.00,47.328,0.00,67.36C 604.80,87.424, 553.376,116.832, 474.24,145.664z"  />
<glyph unicode="&#x65;&#x78;&#x69;&#x74;" d="M 240.00,288.00 L 40.00,288.00 L 40.00,368.00 L 240.00,368.00 L 240.00,448.00 L 360.00,328.00 L 240.00,208.00 ZM 640.00,608.00 L 640.00,88.00 L 400.00-32.00 L 400.00,88.00 L 160.00,88.00 L 160.00,248.00 L 200.00,248.00 L 200.00,128.00 L 400.00,128.00 L 400.00,488.00 L 560.00,568.00 L 200.00,568.00 L 200.00,408.00 L 160.00,408.00 L 160.00,608.00 Z"  />
<glyph unicode="&#x79;&#x65;&#x73;" d="M 120.00,368.00L0.00,248.00L 240.00,8.00L 640.00,408.00L 520.00,528.00L 240.00,248.00 z"  />
<glyph unicode="&#x6b;&#x65;&#x79;" d="M 440.00,608.00c-110.456,0.00-200.00-89.543-200.00-200.00c0.00-12.516, 1.161-24.76, 3.36-36.64L0.00,128.00l0.00-120.00 c0.00-22.091, 17.909-40.00, 40.00-40.00
	l 40.00,0.00 l0.00,40.00 l 80.00,0.00 l0.00,80.00 l 80.00,0.00 l0.00,80.00 l 80.00,0.00 l 51.901,51.901C 393.158,212.204, 416.086,208.00, 440.00,208.00c 110.456,0.00, 200.00,89.543, 200.00,200.00S 550.456,608.00, 440.00,608.00z
	 M 499.921,407.921c-33.138,0.00-60.00,26.862-60.00,60.00s 26.862,60.00, 60.00,60.00s 60.00-26.862, 60.00-60.00S 533.059,407.921, 499.921,407.921z"  />
<glyph unicode="&#x77;&#x65;&#x62;" d="M 300.00,568.00C 134.315,568.00,0.00,433.685,0.00,268.00c0.00-165.686, 134.315-300.00, 300.00-300.00c 165.686,0.00, 300.00,134.314, 300.00,300.00
	C 600.00,433.685, 465.686,568.00, 300.00,568.00z M 469.744,168.00c 5.362,25.284, 8.748,52.12, 9.849,80.00l 79.654,0.00 c-2.085-27.622-8.515-54.446-19.175-80.00
	L 469.744,168.00 z M 130.256,368.00c-5.362-25.284-8.748-52.12-9.849-80.00L 40.755,288.00 c 2.085,27.621, 8.514,54.446, 19.174,80.00L 130.256,368.00 z M 428.772,368.00
	c 6.009-25.601, 9.624-52.409, 10.80-80.00L 320.00,288.00 l0.00,80.00 L 428.772,368.00 z M 320.00,408.00L 320.00,525.086 c 9.119-2.654, 18.152-7.106, 27.018-13.356
	c 16.614-11.712, 32.508-29.755, 45.963-52.179c 9.301-15.501, 17.345-32.76, 24.06-51.552L 320.00,407.999 z M 207.02,459.553
	c 13.455,22.424, 29.348,40.468, 45.963,52.179c 8.864,6.25, 17.899,10.702, 27.018,13.356L 280.00,408.00 l-97.04,0.00 
	C 189.676,426.791, 197.72,444.05, 207.02,459.553z M 280.00,368.00l0.00-80.00 l-119.571,0.00 c 1.175,27.591, 4.791,54.399, 10.799,80.00L 280.00,368.00 z M 59.93,168.00
	c-10.66,25.554-17.089,52.377-19.174,80.00l 79.653,0.00 c 1.101-27.88, 4.486-54.716, 9.849-80.00L 59.93,168.00 z M 160.429,248.00L 280.00,248.00 l0.00-80.00 l-108.773,0.00 
	C 165.22,193.60, 161.604,220.409, 160.429,248.00z M 280.00,128.00l0.00-117.088 c-9.117,2.654-18.152,7.107-27.018,13.356
	c-16.615,11.712-32.509,29.756-45.963,52.179c-9.301,15.502-17.344,32.761-24.061,51.552L 280.00,128.00 z M 392.98,76.447
	c-13.455-22.422-29.349-40.466-45.963-52.179c-8.865-6.249-17.899-10.702-27.018-13.356L 320.00,128.00 l 97.041,0.00 
	C 410.325,109.209, 402.281,91.95, 392.98,76.447z M 320.00,168.00l0.00,80.00 l 119.571,0.00 c-1.175-27.591-4.791-54.40-10.80-80.00L 320.00,168.00 z M 479.592,288.00
	c-1.101,27.88-4.486,54.716-9.849,80.00l 70.328,0.00 c 10.66-25.554, 17.09-52.379, 19.175-80.00L 479.592,288.00 z M 519.161,408.00l-59.938,0.00 
	c-11.649,36.726-27.735,68.934-47.073,94.642c 26.585-12.713, 50.661-29.76, 71.696-50.795C 497.272,438.424, 509.074,423.761, 519.161,408.00
	z M 116.153,451.847c 21.036,21.036, 45.113,38.083, 71.696,50.795c-19.339-25.709-35.422-57.916-47.073-94.642L 80.84,408.00 
	C 90.926,423.761, 102.729,438.424, 116.153,451.847z M 80.84,128.00l 59.936,0.00 c 11.65-36.726, 27.735-68.934, 47.074-94.644
	c-26.585,12.713-50.661,29.76-71.696,50.796C 102.729,97.576, 90.926,112.239, 80.84,128.00z M 483.847,84.153
	c-21.035-21.036-45.113-38.084-71.696-50.796c 19.339,25.709, 35.424,57.918, 47.073,94.644l 59.938,0.00 
	C 509.074,112.239, 497.272,97.576, 483.847,84.153z"  />
<glyph unicode="&#x63;&#x6f;&#x67;" d="M 553.453,339.113L 480.267,339.113 c-4.36,14.04-10.467,27.30-17.92,39.593l 48.54,48.68c 11.46,11.287, 11.46,29.847,0.00,41.253
				l-20.613,20.56c-11.407,11.373-29.893,11.32-41.253,0.00l-49.393-49.313c-13.347,7.613-27.80,13.493-43.193,17.447l0.00,64.16 
				c0.00,16.08-12.993,29.193-29.167,29.193l-29.18,0.00 c-16.073,0.00-29.14-13.12-29.14-29.193l0.00-64.16 c-16.787-4.227-32.50-10.933-46.953-19.673
				l-41.30,41.287c-11.38,11.327-29.933,11.373-41.307,0.00l-20.693-20.627c-11.373-11.36-11.24-29.933, 0.087-41.34l 42.08-42.06
				c-8.893-15.533-15.567-32.48-19.373-50.42l-54.96,0.00 c-16.147,0.00-29.233-13.053-29.233-29.193l0.00-29.193 c0.00-16.06, 13.087-29.147, 29.233-29.147l 58.687,0.00 
				c 5.30-17.567, 13.34-33.793, 23.607-48.56l-39.687-39.68c-11.42-11.44-11.42-29.967-0.08-41.34l 20.607-20.593
				c 11.467-11.32, 29.98-11.32, 41.34,0.053l 44.327,44.30c 14.953-7.42, 31.153-12.793, 48.20-15.56l0.00-61.047 c0.00-16.113, 13.047-29.16, 29.18-29.233
				l 29.18,0.00 c 16.08,0.073, 29.18,13.12, 29.18,29.233L 371.067,123.113 c 14.713,5.213, 28.653,12.14, 41.273,21.013l 46.98-47.02
				c 11.413-11.373, 29.853-11.373, 41.307,0.00l 20.613,20.633c 11.46,11.373, 11.46,29.86-0.087,41.30l-51.487,51.587
				c 6.327,12.813, 11.24,26.48, 14.287,40.913l 69.507,0.00 c 16.187,0.00, 29.22,13.00, 29.273,29.233l0.00,29.147 C 582.667,326.00, 569.633,339.113, 553.453,339.113z
				 M 312.733,215.08c-40.287,0.00-72.953,32.567-72.953,72.947c0.00,40.333, 32.667,72.92, 72.953,72.92c 40.327,0.00, 72.993-32.587, 72.993-72.92
				C 385.727,247.64, 353.06,215.08, 312.733,215.08z"  />
<glyph unicode="&#x6e;&#x6f;" d="M 600.00,120.04L 431.88,288.00L 600.00,455.96L 487.96,568.00L 320.00,399.96L 151.96,568.00L 40.00,455.96L 207.96,288.00L 40.00,120.04L 151.96,8.00L 320.00,176.04L 487.96,8.00 		z"  />
<glyph unicode="&#x20;" horiz-adv-x="320" />
<glyph unicode="&#x74;" d="M0 0" horiz-adv-x="0" />
<glyph unicode="&#x72;" d="M0 0" horiz-adv-x="0" />
<glyph unicode="&#x61;" d="M0 0" horiz-adv-x="0" />
<glyph unicode="&#x73;" d="M0 0" horiz-adv-x="0" />
<glyph unicode="&#x68;" d="M0 0" horiz-adv-x="0" />
<glyph unicode="&#x75;" d="M0 0" horiz-adv-x="0" />
<glyph unicode="&#x6e;" d="M0 0" horiz-adv-x="0" />
<glyph unicode="&#x6c;" d="M0 0" horiz-adv-x="0" />
<glyph unicode="&#x6f;" d="M0 0" horiz-adv-x="0" />
<glyph unicode="&#x63;" d="M0 0" horiz-adv-x="0" />
<glyph unicode="&#x6b;" d="M0 0" horiz-adv-x="0" />
<glyph unicode="&#x65;" d="M0 0" horiz-adv-x="0" />
<glyph unicode="&#x66;" d="M0 0" horiz-adv-x="0" />
<glyph unicode="&#x76;" d="M0 0" horiz-adv-x="0" />
<glyph unicode="&#x67;" d="M0 0" horiz-adv-x="0" />
<glyph unicode="&#x70;" d="M0 0" horiz-adv-x="0" />
<glyph unicode="&#x79;" d="M0 0" horiz-adv-x="0" />
<glyph unicode="&#x6d;" d="M0 0" horiz-adv-x="0" />
<glyph unicode="&#x69;" d="M0 0" horiz-adv-x="0" />
<glyph unicode="&#x62;" d="M0 0" horiz-adv-x="0" />
<glyph unicode="&#x77;" d="M0 0" horiz-adv-x="0" />
<glyph unicode="&#x64;" d="M0 0" horiz-adv-x="0" />
<glyph unicode="&#x78;" d="M0 0" horiz-adv-x="0" />
<glyph class="hidden" unicode="&#xf000;" d="M0,608L 640 -32L0 -32 z" horiz-adv-x="0" />
</font>
</defs>
</svg>
